<svg width="64" height="63" viewBox="0 0 64 63" fill="none" xmlns="http://www.w3.org/2000/svg">
<path d="M7 0H32C35.4144 0 38.7953 0.67251 41.9498 1.97913C45.1042 3.28575 47.9705 5.2009 50.3848 7.61522C52.7991 10.0295 54.7142 12.8958 56.0209 16.0502C57.3275 19.2047 58 22.5856 58 26V51H33C26.1044 51 19.4912 48.2607 14.6152 43.3848C9.73928 38.5088 7 31.8956 7 25V0Z" fill="white"/>
<path d="M12 2.5H32C38.2326 2.5 44.2099 4.97589 48.617 9.38299C53.0241 13.7901 55.5 19.7674 55.5 26V46C55.5 46.663 55.2366 47.2989 54.7678 47.7678C54.2989 48.2366 53.663 48.5 53 48.5H33C26.7674 48.5 20.7901 46.0241 16.383 41.617C11.9759 37.2099 9.5 31.2326 9.5 25V5C9.5 4.33696 9.76339 3.70107 10.2322 3.23223C10.7011 2.76339 11.337 2.5 12 2.5V2.5Z" stroke="white" stroke-width="5"/>
<path d="M26.3143 26.4121L30.6212 30.7191L40.6621 20.6781" stroke="#09CC10" stroke-width="5" stroke-linecap="round"/>
<path d="M0.863037 1C0.863037 1 10.199 2.04596 10.104 10.533C10.009 19.02 12.65 1 12.65 1H0.863037Z" fill="white"/>
<path d="M48.7367 51.0325C48.7367 51.0325 58.0261 49.6249 60.1325 57.8479C62.2389 66.0709 60.1229 47.9796 60.1229 47.9796L48.7367 51.0325Z" fill="white"/>
</svg>
