<svg width="128" height="221" viewBox="0 0 128 221" fill="none" xmlns="http://www.w3.org/2000/svg">
<path d="M101 0H27C12.0883 0 0 12.0883 0 27V194C0 208.912 12.0883 221 27 221H101C115.912 221 128 208.912 128 194V27C128 12.0883 115.912 0 101 0Z" fill="#FF014E"/>
<path opacity="0.2" d="M83 176H45C36.1634 176 29 183.163 29 192C29 200.837 36.1634 208 45 208H83C91.8366 208 99 200.837 99 192C99 183.163 91.8366 176 83 176Z" fill="white"/>
<path opacity="0.2" d="M120.79 34.5908H50.79C48.5809 34.5908 46.79 36.3817 46.79 38.5908C46.79 40.8 48.5809 42.5908 50.79 42.5908H120.79C122.999 42.5908 124.79 40.8 124.79 38.5908C124.79 36.3817 122.999 34.5908 120.79 34.5908Z" fill="white"/>
<g opacity="0.5">
<path opacity="0.5" d="M38.127 42.2379V43.1489C38.1198 43.6739 37.908 44.1754 37.5367 44.5466C37.1655 44.9179 36.664 45.1297 36.139 45.1369H20.232C19.707 45.1297 19.2056 44.9179 18.8343 44.5466C18.463 44.1754 18.2513 43.6739 18.244 43.1489V42.2379C18.244 39.8379 21.061 38.3439 23.712 37.1839L23.961 37.0599C24.06 37.0155 24.1684 36.996 24.2766 37.0031C24.3849 37.0103 24.4897 37.0439 24.582 37.1009C25.6372 37.8033 26.8765 38.178 28.144 38.1779C29.4095 38.1642 30.6449 37.7907 31.706 37.1009C31.7983 37.0439 31.9032 37.0103 32.0114 37.0031C32.1197 36.996 32.228 37.0155 32.327 37.0599L32.576 37.1839C35.31 38.3439 38.127 39.7939 38.127 42.2379ZM28.186 25.2539C29.5644 25.3263 30.8577 25.9428 31.7819 26.9681C32.7061 27.9933 33.1855 29.3434 33.115 30.7219C33.1855 32.1004 32.7061 33.4505 31.7819 34.4758C30.8577 35.501 29.5644 36.1175 28.186 36.1899C26.8074 36.1178 25.5139 35.5014 24.5895 34.4761C23.6651 33.4508 23.1855 32.1006 23.256 30.7219C23.1855 29.3433 23.6651 27.993 24.5895 26.9677C25.5139 25.9424 26.8074 25.326 28.186 25.2539Z" fill="white"/>
</g>
<path opacity="0.2" d="M120.79 74.5908H50.79C48.5809 74.5908 46.79 76.3817 46.79 78.5908C46.79 80.8 48.5809 82.5908 50.79 82.5908H120.79C122.999 82.5908 124.79 80.8 124.79 78.5908C124.79 76.3817 122.999 74.5908 120.79 74.5908Z" fill="white"/>
<g opacity="0.5">
<path opacity="0.5" d="M38.127 82.2379V83.1489C38.1198 83.6739 37.908 84.1754 37.5367 84.5466C37.1655 84.9179 36.664 85.1297 36.139 85.1369H20.232C19.707 85.1297 19.2056 84.9179 18.8343 84.5466C18.463 84.1754 18.2513 83.6739 18.244 83.1489V82.2379C18.244 79.8379 21.061 78.3439 23.712 77.1839L23.961 77.0599C24.06 77.0155 24.1684 76.996 24.2766 77.0031C24.3849 77.0103 24.4897 77.0439 24.582 77.1009C25.6372 77.8033 26.8765 78.178 28.144 78.1779C29.4095 78.1642 30.6449 77.7907 31.706 77.1009C31.7983 77.0439 31.9032 77.0103 32.0114 77.0031C32.1197 76.996 32.228 77.0155 32.327 77.0599L32.576 77.1839C35.31 78.3439 38.127 79.7939 38.127 82.2379ZM28.186 65.2539C29.5644 65.3263 30.8577 65.9428 31.7819 66.9681C32.7061 67.9933 33.1855 69.3434 33.115 70.7219C33.1855 72.1004 32.7061 73.4505 31.7819 74.4758C30.8577 75.501 29.5644 76.1175 28.186 76.1899C26.8074 76.1178 25.5139 75.5014 24.5895 74.4761C23.6651 73.4508 23.1855 72.1006 23.256 70.7219C23.1855 69.3433 23.6651 67.993 24.5895 66.9677C25.5139 65.9424 26.8074 65.326 28.186 65.2539Z" fill="white"/>
</g>
<path opacity="0.2" d="M120.79 114.591H50.79C48.5809 114.591 46.79 116.382 46.79 118.591C46.79 120.8 48.5809 122.591 50.79 122.591H120.79C122.999 122.591 124.79 120.8 124.79 118.591C124.79 116.382 122.999 114.591 120.79 114.591Z" fill="white"/>
<g opacity="0.5">
<path opacity="0.5" d="M38.127 122.238V123.149C38.1198 123.674 37.908 124.175 37.5367 124.547C37.1655 124.918 36.664 125.13 36.139 125.137H20.232C19.707 125.13 19.2056 124.918 18.8343 124.547C18.463 124.175 18.2513 123.674 18.244 123.149V122.238C18.244 119.838 21.061 118.344 23.712 117.184L23.961 117.06C24.06 117.015 24.1684 116.996 24.2766 117.003C24.3849 117.01 24.4897 117.044 24.582 117.101C25.6372 117.803 26.8765 118.178 28.144 118.178C29.4095 118.164 30.6449 117.791 31.706 117.101C31.7983 117.044 31.9032 117.01 32.0114 117.003C32.1197 116.996 32.228 117.015 32.327 117.06L32.576 117.184C35.31 118.344 38.127 119.794 38.127 122.238ZM28.186 105.254C29.5644 105.326 30.8577 105.943 31.7819 106.968C32.7061 107.993 33.1855 109.343 33.115 110.722C33.1855 112.1 32.7061 113.451 31.7819 114.476C30.8577 115.501 29.5644 116.118 28.186 116.19C26.8074 116.118 25.5139 115.501 24.5895 114.476C23.6651 113.451 23.1855 112.101 23.256 110.722C23.1855 109.343 23.6651 107.993 24.5895 106.968C25.5139 105.942 26.8074 105.326 28.186 105.254Z" fill="white"/>
</g>
<path opacity="0.2" d="M120.79 154.591H50.79C48.5809 154.591 46.79 156.382 46.79 158.591C46.79 160.8 48.5809 162.591 50.79 162.591H120.79C122.999 162.591 124.79 160.8 124.79 158.591C124.79 156.382 122.999 154.591 120.79 154.591Z" fill="white"/>
<g opacity="0.5">
<path opacity="0.5" d="M38.127 162.238V163.149C38.1198 163.674 37.908 164.175 37.5367 164.547C37.1655 164.918 36.664 165.13 36.139 165.137H20.232C19.707 165.13 19.2056 164.918 18.8343 164.547C18.463 164.175 18.2513 163.674 18.244 163.149V162.238C18.244 159.838 21.061 158.344 23.712 157.184L23.961 157.06C24.06 157.015 24.1684 156.996 24.2766 157.003C24.3849 157.01 24.4897 157.044 24.582 157.101C25.6372 157.803 26.8765 158.178 28.144 158.178C29.4095 158.164 30.6449 157.791 31.706 157.101C31.7983 157.044 31.9032 157.01 32.0114 157.003C32.1197 156.996 32.228 157.015 32.327 157.06L32.576 157.184C35.31 158.344 38.127 159.794 38.127 162.238ZM28.186 145.254C29.5644 145.326 30.8577 145.943 31.7819 146.968C32.7061 147.993 33.1855 149.343 33.115 150.722C33.1855 152.1 32.7061 153.451 31.7819 154.476C30.8577 155.501 29.5644 156.118 28.186 156.19C26.8074 156.118 25.5139 155.501 24.5895 154.476C23.6651 153.451 23.1855 152.101 23.256 150.722C23.1855 149.343 23.6651 147.993 24.5895 146.968C25.5139 145.942 26.8074 145.326 28.186 145.254Z" fill="white"/>
</g>
</svg>
