<svg width="194" height="44" viewBox="0 0 194 44" fill="none" xmlns="http://www.w3.org/2000/svg">
<path opacity="0.1" d="M185 0H9C4.02944 0 0 4.02944 0 9V35C0 39.9706 4.02944 44 9 44H185C189.971 44 194 39.9706 194 35V9C194 4.02944 189.971 0 185 0Z" fill="#474DFF"/>
<path opacity="0.5" d="M18.1045 20.251C18.8359 20.251 19.2939 20.8594 19.2939 21.8438C19.2939 22.8281 18.8359 23.4365 18.0977 23.4365C17.3799 23.4365 16.9492 22.835 16.9492 21.8438C16.9492 20.8457 17.3799 20.251 18.1045 20.251ZM18.3301 16.0947C14.9189 16.0947 12.5469 18.4053 12.5469 21.7959C12.5469 25.3301 14.9805 27.4971 18.4395 27.4971C19.1777 27.4971 19.875 27.4014 20.4082 27.2441V26.1504C20.0186 26.2939 19.2734 26.3896 18.542 26.3896C15.7256 26.3896 13.8047 24.708 13.8047 21.8301C13.8047 19.082 15.6504 17.1816 18.2822 17.1816C20.873 17.1816 22.5889 18.7881 22.5889 21.2764C22.5889 22.7324 22.124 23.5869 21.4541 23.5869C21.0234 23.5869 20.8047 23.2861 20.8047 22.8145V19.1572H19.417V19.9775H19.3213C19.0547 19.376 18.4395 19.0068 17.7012 19.0068C16.334 19.0068 15.3975 20.1416 15.3975 21.8027C15.3975 23.5391 16.3477 24.6943 17.7695 24.6943C18.5625 24.6943 19.1367 24.3252 19.417 23.6416H19.5127C19.6631 24.3047 20.3125 24.7148 21.1602 24.7148C22.8281 24.7148 23.8467 23.3271 23.8467 21.1738C23.8467 18.1318 21.5703 16.0947 18.3301 16.0947ZM27.2578 16.1357H25.1934V22.5137C25.1934 24.6875 26.7998 26.1709 29.3291 26.1709C31.8516 26.1709 33.458 24.6875 33.458 22.5137V16.1357H31.3936V22.3086C31.3936 23.5732 30.6484 24.4004 29.3291 24.4004C28.0029 24.4004 27.2578 23.5732 27.2578 22.3086V16.1357ZM34.8115 20.8252C34.8115 21.9053 35.5225 22.6299 36.9102 22.9443L38.2637 23.2451C38.9199 23.4023 39.166 23.6074 39.166 23.9766C39.166 24.4551 38.708 24.7559 37.9492 24.7559C37.1562 24.7559 36.6709 24.4004 36.5752 23.7852H34.627C34.7363 25.2139 35.9395 26.1572 37.8945 26.1572C39.8291 26.1572 41.1553 25.207 41.1553 23.7646C41.1553 22.6709 40.5605 22.0898 39.0908 21.7617L37.6895 21.4609C37.0469 21.3105 36.7324 21.0645 36.7324 20.7021C36.7324 20.2305 37.1836 19.916 37.874 19.916C38.6123 19.916 39.084 20.2783 39.125 20.8662H40.9639C40.9365 19.4443 39.7402 18.5146 37.9014 18.5146C36.0215 18.5146 34.8115 19.4307 34.8115 20.8252ZM45.4414 19.9912C46.3301 19.9912 46.9385 20.6338 46.9795 21.5703H43.8691C43.9375 20.6543 44.5664 19.9912 45.4414 19.9912ZM47.0068 23.7578C46.8223 24.3184 46.2617 24.6807 45.5303 24.6807C44.5117 24.6807 43.8486 23.9629 43.8486 22.917V22.7939H48.9004V22.1855C48.9004 19.957 47.5537 18.5146 45.4209 18.5146C43.2539 18.5146 41.8867 20.0322 41.8867 22.3701C41.8867 24.7148 43.2402 26.1572 45.4961 26.1572C47.3076 26.1572 48.6201 25.1934 48.8389 23.7578H47.0068ZM49.9326 26H51.9287V21.9053C51.9287 20.873 52.5029 20.2715 53.4873 20.2715C53.7744 20.2715 54.0479 20.3193 54.2119 20.3877V18.6309C54.0752 18.5898 53.877 18.5557 53.6445 18.5557C52.7832 18.5557 52.1611 19.0615 51.9014 19.9912H51.8604V18.6719H49.9326V26ZM55.0322 26H57.0283V21.7959C57.0283 20.8457 57.5957 20.1895 58.4912 20.1895C59.3867 20.1895 59.8379 20.7363 59.8379 21.6934V26H61.834V21.2764C61.834 19.5605 60.918 18.5352 59.291 18.5352C58.1631 18.5352 57.3906 19.0684 57.001 19.9775H56.96V18.6719H55.0322V26ZM65.9287 24.6738C65.252 24.6738 64.8008 24.332 64.8008 23.7852C64.8008 23.2656 65.2246 22.9307 65.9697 22.876L67.5146 22.7803V23.3135C67.5146 24.1064 66.7969 24.6738 65.9287 24.6738ZM65.2725 26.1162C66.1885 26.1162 67.0977 25.6582 67.5078 24.8789H67.5488V26H69.4766V20.9619C69.4766 19.4854 68.2529 18.5146 66.373 18.5146C64.4316 18.5146 63.2217 19.4922 63.1465 20.9141H64.9717C65.0674 20.374 65.5391 20.0049 66.2842 20.0049C67.0361 20.0049 67.5146 20.4014 67.5146 21.085V21.5703L65.6689 21.6797C63.8438 21.7891 62.8184 22.5615 62.8184 23.8945C62.8184 25.2139 63.8779 26.1162 65.2725 26.1162ZM70.7686 26H72.7646V21.5771C72.7646 20.7568 73.2773 20.1826 74.0361 20.1826C74.7744 20.1826 75.2188 20.6475 75.2188 21.4336V26H77.1396V21.5498C77.1396 20.7363 77.6387 20.1826 78.3975 20.1826C79.1699 20.1826 79.5938 20.6475 79.5938 21.4951V26H81.5898V20.9961C81.5898 19.5195 80.626 18.5352 79.1904 18.5352C78.1172 18.5352 77.2422 19.1162 76.9141 20.0391H76.873C76.627 19.082 75.8887 18.5352 74.8291 18.5352C73.8311 18.5352 73.0449 19.1162 72.7373 19.998H72.6963V18.6719H70.7686V26ZM86.1426 19.9912C87.0312 19.9912 87.6396 20.6338 87.6807 21.5703H84.5703C84.6387 20.6543 85.2676 19.9912 86.1426 19.9912ZM87.708 23.7578C87.5234 24.3184 86.9629 24.6807 86.2314 24.6807C85.2129 24.6807 84.5498 23.9629 84.5498 22.917V22.7939H89.6016V22.1855C89.6016 19.957 88.2549 18.5146 86.1221 18.5146C83.9551 18.5146 82.5879 20.0322 82.5879 22.3701C82.5879 24.7148 83.9414 26.1572 86.1973 26.1572C88.0088 26.1572 89.3213 25.1934 89.54 23.7578H87.708Z" fill="#474DFF"/>
</svg>
